# AST/ASF file generated using VICON BodyLanguage
# -----------------------------------------------
:version 1.10
:name VICON
:units
  mass 1.0
  length 0.45
  angle deg
:documentation
   .ast/.asf automatically generated from VICON data using
   VICON BodyBuilder and BodyLanguage model FoxedUp or BRILLIANT.MOD
:root
   order TX TY TZ RX RY RZ
   axis XYZ
   position 0 0 0  
   orientation 0 0 0 
:bonedata
  begin
     id 1 
     name lhipjoint
     direction 0.547975 -0.797114 0.253638 
     length 2.36201 
     axis 0 0 0  XYZ
  end
  begin
     id 2 
     name lfemur
     direction 0.34202 -0.939693 0  
     length 7.69075  
     axis 0 0 20  XYZ
    dof rx ry rz
    limits (-160.0 20.0)
           (-70.0 70.0)
           (-60.0 70.0)
  end
  begin
     id 3 
     name ltibia
     direction 0.34202 -0.939693 0   
     length 7.91399   
     axis 0 0 20   XYZ
    dof rx
    limits (-10.0 170.0)
  end
  begin
     id 4 
     name lfoot
     direction 0.0705293 -0.193778 0.978507   
     length 2.13618   
     axis -90 7.62852e-016 20   XYZ
    dof rx rz
    limits (-45.0 90.0)
           (-70.0 20.0)
  end
  begin
     id 5 
     name ltoes
     direction 1.53592e-011 -4.21925e-011 1   
     length 1.07518   
     axis -90 7.62852e-016 20   XYZ
    dof rx
    limits (-90.0 20.0)
  end
  begin
     id 6 
     name rhipjoint
     direction -0.57 -0.782963 0.249136   
     length 2.4047  
     axis 0 0 0  XYZ 
  end
  begin
     id 7 
     name rfemur
     direction -0.34202 -0.939693 0   
     length 7.51486   
     axis 0 0 -20   XYZ
    dof rx ry rz
    limits (-160.0 20.0)
           (-70.0 70.0)
           (-70.0 60.0)
  end
  begin
     id 8 
     name rtibia
     direction -0.34202 -0.939693 0   
     length 8.08317   
     axis 0 0 -20   XYZ
    dof rx
    limits (-10.0 170.0)
 end
 begin
     id 9 
     name rfoot
     direction -0.104954 -0.281256 0.953876   
     length 2.30343  
     axis -90 -7.62852e-016 -20   XYZ
    dof rx rz
    limits (-45.0 90.0)
           (-20.0 70.0)
  end
  begin
     id 10 
     name rtoes
     direction -1.53556e-011 -4.21922e-011 1   
     length 1.14803   
     axis -90 -7.62852e-016 -20   XYZ
    dof rx
    limits (-90.0 20.0)
  end
  begin
     id 11 
     name lowerback
     direction -0.0152855 0.99353 -0.11254   
     length 2.05311   
     axis 0 0 0   XYZ
    dof rx ry rz
    limits (-20.0 45.0)
           (-30.0 30.0)
           (-30.0 30.0)
  end
  begin
     id 12 
     name upperback
     direction -0.00157509 0.999443 -0.033332   
     length 2.06353   
     axis 0 0 0   XYZ
    dof rx ry rz
    limits (-20.0 45.0)
           (-30.0 30.0)
           (-30.0 30.0)
  end
  begin
     id 13 
     name thorax
     direction 0.00577788 0.999804 0.0189484   
     length 2.08472   
     axis 0 0 0   XYZ
    dof rx ry rz
    limits (-20.0 45.0)
           (-30.0 30.0)
           (-30.0 30.0)
  end
  begin
     id 14 
     name lowerneck
     direction -1.09301e-005 0.994719 0.10264   
     length 1.76249   
     axis 0 0 0   XYZ
    dof rx ry rz
    limits (-20.0 45.0)
           (-30.0 30.0)
           (-30.0 30.0)
  end
  begin
     id 15 
     name upperneck
     direction 0.0495018 0.988526 -0.142706   
     length 1.77897   
     axis 0 0 0   XYZ
    dof rx ry rz
    limits (-20.0 45.0)
           (-30.0 30.0)
           (-30.0 30.0)
  end
  begin
     id 16
     name head
     direction 0.0142736 0.998114 -0.0597101  
     length 1.78934  
     axis 0 0 0   XYZ
    dof rx ry rz
    limits (-20.0 45.0)
           (-30.0 30.0)
           (-30.0 30.0)
  end
  begin
     id 17 
     name lclavicle
     direction 0.918111 0.396107 -0.0130883  
     length 3.37276  
     axis 0 0 0   XYZ
    dof ry rz
    limits (-20.0 10.0)
           (0.0 20.0)
  end
  begin
     id 18 
     name lhumerus
     direction 1 -4.48975e-011 -3.26108e-027   
     length 5.34298   
     axis 180 -30 -90   XYZ
    dof rx ry rz
    limits (-60.0 90.0)
           (-90.0 90.0)
           (-90.0 90.0)
  end
  begin
     id 19
     name lradius
     direction 1 -4.48964e-011 -8.84413e-028   
     length 3.67262   
     axis 180 -30 -90   XYZ
    dof rx
    limits (-10.0 170.0)
  end
  begin
     id 20
     name lwrist
     direction 1 -4.48991e-011 -1.24264e-027   
     length 1.83631   
     axis -2.17013e-015 90 90   XYZ
    dof ry
    limits (-180.0 0.0)
 end
  begin
     id 21 
     name lhand
     direction 1 -4.48855e-011 -2.48528e-027   
     length 0.599298   
     axis 1.58582e-015 90 90   XYZ
    dof rx rz
    limits (-90.0 90.0)
           (-45.0 45.0)
  end
  begin
     id 22 
     name lfingers
     direction 1 -4.48811e-011 -4.97056e-027   
     length 0.48317   
     axis 3.17164e-015 90 90   XYZ
    dof rx
    limits (0.0 90.0)
  end
  begin
     id 23
     name lthumb
     direction 0.707107 -6.34882e-011 0.707107   
     length 0.693738   
     axis -90 45 2.85299e-015   XYZ
    dof rx rz
    limits (-45.0 45.0)
           (-45.0 45.0)
  end
  begin
     id 24 
     name rclavicle
     direction -0.920511 0.384752 -0.0680135   
     length 3.43787  
     axis 0 0 0   XYZ 
    dof ry rz
    limits (-10.0 20.0)
           (-20.0 0.0)
  end
  begin
     id 25 
     name rhumerus
     direction -0.999976 -0.00330524 0.00603274  
     length 5.5498   
     axis 180 30 90   XYZ
    dof rx ry rz
    limits (-90.0 60.0)
           (-90.0 90.0)
           (-90.0 90.0)
  end
  begin
     id 26 
     name rradius
     direction -1 -4.48967e-011 8.62438e-027   
     length 3.69401   
     axis 180 30 90   XYZ
    dof rx
    limits (-10.0 170.0)
  end
  begin
     id 27 
     name rwrist
     direction -1 -4.4897e-011 9.54866e-027   
     length 1.84701   
     axis -7.69462e-015 -90 -90   XYZ
    dof ry
    limits (-180.0 0.0)
  end
  begin
     id 28
     name rhand
     direction -1 -4.48982e-011 1.90973e-026   
     length 0.638113   
     axis -1.21857e-014 -90 -90   XYZ
    dof rx rz
    limits (-90.0 90.0)
           (-45.0 45.0)
  end
  begin
     id 29
     name rfingers
     direction -1 -4.48936e-011 3.81946e-026   
     length 0.514463   
     axis -2.43714e-014 -90 -90   XYZ
    dof rx
    limits (0.0 90.0)
  end
  begin
     id 30
     name rthumb
     direction -0.707107 -6.34942e-011 0.707107   
     length 0.738669   
     axis -90 -45 -2.85299e-015   XYZ
    dof rx rz
    limits (-45.0 45.0)
           (-45.0 45.0)
  end
:hierarchy
  begin
    root lhipjoint rhipjoint lowerback
    lhipjoint lfemur
    lfemur ltibia
    ltibia lfoot
    lfoot ltoes
    rhipjoint rfemur
    rfemur rtibia
    rtibia rfoot
    rfoot rtoes
    lowerback upperback
    upperback thorax
    thorax lowerneck lclavicle rclavicle
    lowerneck upperneck
    upperneck head
    lclavicle lhumerus
    lhumerus lradius
    lradius lwrist
    lwrist lhand lthumb
    lhand lfingers
    rclavicle rhumerus
    rhumerus rradius
    rradius rwrist
    rwrist rhand rthumb
    rhand rfingers
  end

#!OML:ASF F:\twosubjects\two\Thursday\Session 1\Rory.ASF
:FULLY-SPECIFIED
:DEGREES
111
root 9.56564 18.6273 -4.83034 10.3023 -4.5251 1.07859
lowerback 3.60202 0.304525 -0.733139
upperback 3.13466 0.408643 -3.81443
thorax 1.22514 0.230417 -3.52483
lowerneck -7.49742 -1.88325 -2.8863
upperneck 13.0022 -2.69965 3.80814
head 5.23264 -1.20832 1.47772
rclavicle 2.78299e-015 3.18055e-015
rhumerus 37.6332 3.59196 -82.5452
rradius 57.8173
rwrist -17.9874
rhand -51.6445 22.2947
rfingers 7.12502
rthumb -24.1666 -6.20286
lclavicle 2.78299e-015 3.18055e-015
lhumerus 38.2004 -9.46776 70.9661
lradius 59.169
lwrist 9.58497
lhand -29.8548 63.536
lfingers 7.12502
lthumb -3.17719 -93.4921
rfemur -8.68153 6.20871 20.2044
rtibia 23.0952
rfoot -14.7357 -6.65018
rtoes -5.62203
lfemur -25.1684 1.13223 -21.6384
ltibia 20.843
lfoot -5.65864 2.63575
ltoes 12.1155
112
root 9.59396 18.6223 -4.75511 10.1035 -4.35771 0.8873
lowerback 3.57951 0.27028 -0.578151
upperback 3.1144 0.365916 -3.64683
thorax 1.21378 0.209857 -3.43711
lowerneck -6.91459 -1.9483 -3.30254
upperneck 12.9896 -2.77037 3.96473
head 5.13965 -1.25933 1.59489
rclavicle -1.23246e-014 4.29375e-014
rhumerus 37.1537 3.73314 -82.3455
rradius 58.0781
rwrist -18.0334
rhand -51.6716 21.5395
rfingers 7.12502
rthumb -24.1927 -6.95465
lclavicle -1.23246e-014 4.29375e-014
lhumerus 37.6481 -9.67398 70.917
lradius 59.6919
lwrist 10.2509
lhand -29.6263 63.5484
lfingers 7.12502
lthumb -2.95654 -93.5077
rfemur -8.31153 5.86863 20.3143
rtibia 23.3749
rfoot -14.7624 -6.25783
rtoes -6.43336
lfemur -24.7931 0.976771 -21.5087
ltibia 21.0128
lfoot -5.96968 2.76808
ltoes 12.2075
113
root 9.61761 18.6255 -4.6794 9.92946 -4.25316 0.700641
lowerback 3.55697 0.307493 -0.461666
upperback 3.07492 0.417071 -3.53371
thorax 1.18824 0.235956 -3.38659
lowerneck -6.99493 -2.01789 -3.21085
upperneck 13.4947 -2.85108 3.69821
head 5.30805 -1.30832 1.49072
rclavicle 7.95139e-016 -7.95139e-016
rhumerus 36.3798 3.632 -82.1727
rradius 58.6094
rwrist -18.1304
rhand -52.0696 21.2908
rfingers 7.12502
rthumb -24.5742 -7.15198
lclavicle 7.95139e-016 -7.95139e-016
lhumerus 37.3247 -10.0214 70.9663
lradius 60.0054
lwrist 10.5502
lhand -29.2722 63.7654
lfingers 7.12502
lthumb -2.61459 -93.7291
rfemur -8.09136 5.62116 20.439
rtibia 23.7257
rfoot -14.6523 -5.99917
rtoes -6.71159
lfemur -24.3945 1.00016 -21.4241
ltibia 21.0901
lfoot -6.23229 2.75566
ltoes 11.6491
114
root 9.64574 18.6335 -4.61343 9.83976 -4.15828 0.7875
lowerback 3.46174 0.28978 -0.58069
upperback 3.06812 0.39337 -3.57426
thorax 1.23268 0.222681 -3.36031
lowerneck -7.37912 -2.08206 -2.71223
upperneck 14.1306 -2.93222 3.1629
head 5.55978 -1.35181 1.23182
rclavicle -4.77083e-015 -3.18055e-014
rhumerus 35.8995 3.63241 -82.18
rradius 58.8604
rwrist -18.0236
rhand -52.7004 21.6829
rfingers 7.12502
rthumb -25.1787 -6.67635
lclavicle -4.77083e-015 -3.18055e-014
lhumerus 37.1574 -10.3365 70.912
lradius 60.1034
lwrist 10.1715
lhand -29.0751 63.3562
lfingers 7.12502
lthumb -2.42423 -93.3221
rfemur -8.03863 5.77751 20.2269
rtibia 24.2149
rfoot -14.4529 -5.82382
rtoes -5.43294
lfemur -24.1081 1.06212 -21.6821
ltibia 21.0996
lfoot -6.42622 2.61947
ltoes 10.742
115
root 9.67139 18.647 -4.54503 9.65863 -4.12097 0.660498
lowerback 3.41973 0.290428 -0.439036
upperback 3.05881 0.398436 -3.59525
thorax 1.24816 0.227989 -3.46195
lowerneck -7.20648 -2.11548 -2.51566
upperneck 14.4025 -3.00181 3.08258
head 5.61299 -1.38136 1.17073
rclavicle 2.38542e-015 7.95139e-016
rhumerus 35.6913 3.71414 -82.207
rradius 58.735
rwrist -17.9494
rhand -52.8987 21.7246
rfingers 7.12502
rthumb -25.3687 -6.60777
lclavicle 2.38542e-015 7.95139e-016
lhumerus 36.9078 -10.6051 70.9387
lradius 60.3237
lwrist 10.3818
lhand -29.3072 63.4312
lfingers 7.12502
lthumb -2.64836 -93.3945
rfemur -7.84626 6.00265 20.2745
rtibia 24.7589
rfoot -14.2264 -5.81069
rtoes -4.97626
lfemur -23.6424 1.087 -21.6687
ltibia 21.0741
lfoot -6.63848 2.66309
ltoes 9.77716
116
root 9.69518 18.6559 -4.47756 9.51642 -4.1027 0.636654
lowerback 3.33627 0.373372 -0.425267
upperback 2.91838 0.506602 -3.53621
thorax 1.15577 0.280259 -3.41033
lowerneck -6.5271 -2.14396 -2.70098
upperneck 14.5099 -3.04547 3.16538
head 5.53512 -1.4128 1.23083
rclavicle 1.19271e-014 -2.54444e-014
rhumerus 35.1318 3.70641 -81.8696
rradius 58.8083
rwrist -18.1004
rhand -52.8782 19.7634
rfingers 7.12502
rthumb -25.3491 -8.57179
lclavicle 1.19271e-014 -2.54444e-014
lhumerus 36.5781 -10.9781 71.3566
lradius 60.4871
lwrist 11.0873
lhand -29.7854 64.5059
lfingers 7.12502
lthumb -3.11025 -94.4629
rfemur -7.88003 5.62144 20.2375
rtibia 25.3533
rfoot -13.8301 -5.86136
rtoes -9.1835
lfemur -23.2519 1.11492 -21.7537
ltibia 21.0957
lfoot -6.80371 2.70776
ltoes 9.30417
117
root 9.72139 18.6468 -4.41908 9.3733 -3.99892 0.771943
lowerback 3.21164 0.17833 -0.76894
upperback 3.08186 0.24807 -3.49631
thorax 1.37727 0.146559 -3.16901
lowerneck -7.06897 -1.96121 -2.3284
upperneck 14.8632 -2.78556 2.78209
head 5.72019 -1.28662 1.06184
rclavicle 3.97569e-016 1.43125e-014
rhumerus 35.2652 4.15687 -81.9074
rradius 58.9664
rwrist -18.116
rhand -52.734 17.3221
rfingers 7.12502
rthumb -25.211 -11.0326
lclavicle 3.97569e-016 1.43125e-014
lhumerus 36.7812 -10.591 71.3042
lradius 60.4121
lwrist 11.5113
lhand -29.7238 65.3356
lfingers 7.12502
lthumb -3.05076 -95.2936
rfemur -7.75671 5.45767 19.9392
rtibia 25.913
rfoot -14.0198 -5.33662
rtoes -9.62399
lfemur -23.0167 1.32676 -22.0689
ltibia 21.2527
lfoot -7.01894 2.40781
ltoes 9.06444
118
root 9.7509 18.6395 -4.36765 9.28105 -3.91113 0.840961
lowerback 3.07511 0.0796071 -0.931343
upperback 3.10024 0.117637 -3.42076
thorax 1.4653 0.0778965 -2.99652
lowerneck -6.68126 -1.87126 -2.37609
upperneck 14.7401 -2.64616 2.67792
head 5.61053 -1.23274 1.05048
rclavicle -6.75868e-015 -2.8625e-014
rhumerus 35.0632 4.38639 -81.8398
rradius 59.1158
rwrist -18.1558
rhand -52.8037 17.3696
rfingers 7.12502
rthumb -25.2777 -10.9757
lclavicle -6.75868e-015 -2.8625e-014
lhumerus 36.6082 -10.342 71.6823
lradius 60.4447
lwrist 11.6483
lhand -29.4778 66.1098
lfingers 7.12502
lthumb -2.81314 -96.071
rfemur -7.80383 5.11927 19.7355
rtibia 26.4809
rfoot -13.8216 -5.02872
rtoes -12.7108
lfemur -22.8933 1.46972 -22.3037
ltibia 21.4995
lfoot -7.33124 2.18983
ltoes 9.03212
119
root 9.78341 18.6341 -4.31354 9.24454 -3.86608 0.795719
lowerback 2.85322 0.0534663 -0.831258
upperback 3.09714 0.0908127 -3.39036
thorax 1.58517 0.066495 -3.02081
lowerneck -6.43658 -1.80457 -2.29643
upperneck 14.8727 -2.55133 2.53454
head 5.60453 -1.19385 1.00096
rclavicle -7.95139e-015 -8.74653e-015
rhumerus 34.6527 4.50001 -81.7321
rradius 59.4077
rwrist -18.365
rhand -53.0801 18.7322
rfingers 7.12502
rthumb -25.5425 -9.57544
lclavicle -7.95139e-015 -8.74653e-015
lhumerus 36.3848 -10.1484 72.1264
lradius 60.502
lwrist 11.5399
lhand -29.3711 66.8556
lfingers 7.12502
lthumb -2.71006 -96.8181
rfemur -7.94513 4.9158 19.6499
rtibia 27.0287
rfoot -13.4112 -4.8994
rtoes -14.564
lfemur -22.8038 1.45502 -22.3958
ltibia 21.8016
lfoot -7.64294 2.19857
ltoes 8.57083
